<svg width="34" height="34" viewBox="0 0 34 34" fill="none" xmlns="http://www.w3.org/2000/svg">
<path d="M33.2497 16.2461C33.2526 16.2461 33.2549 16.2461 33.2578 16.2461C33.4649 16.2461 33.6623 16.1593 33.8026 16.0071C33.9451 15.8528 34.0156 15.6457 33.9971 15.4364C33.2519 7.2403 26.7629 0.749043 18.566 0.00239181C18.3582 -0.0139365 18.1489 0.0536035 17.9945 0.196848C17.8402 0.33935 17.7541 0.540485 17.7563 0.750527C17.8854 11.643 19.3223 16.094 33.2497 16.2461ZM33.2497 17.7513C19.3223 17.9035 17.8862 22.3544 17.757 33.2469C17.7548 33.457 17.8409 33.6581 17.9953 33.8006C18.1333 33.9275 18.3137 33.998 18.4992 33.998C18.5215 33.998 18.5445 33.9973 18.5668 33.995C26.7636 33.2484 33.2526 26.7579 33.9971 18.561C34.0156 18.3517 33.9458 18.1447 33.8026 17.9903C33.6594 17.8359 33.4597 17.7595 33.2497 17.7513ZM15.3842 0.00610289C7.21337 0.774278 0.745117 7.26405 0.00366094 15.4379C-0.014894 15.6472 0.0548727 15.8543 0.198117 16.0086C0.338392 16.1608 0.536559 16.2469 0.74289 16.2469C0.745859 16.2469 0.748828 16.2469 0.751796 16.2469C14.6331 16.0873 16.0663 11.6386 16.1969 0.753496C16.1992 0.543454 16.1123 0.341576 15.9579 0.199074C15.8021 0.0565723 15.5935 -0.0131943 15.3842 0.00610289ZM0.751054 17.7506C0.520231 17.7246 0.339134 17.8344 0.197375 17.9888C0.0548727 18.1432 -0.0156361 18.3503 0.0029188 18.5596C0.744374 26.7334 7.21337 33.2232 15.3842 33.9913C15.4072 33.9936 15.431 33.9943 15.454 33.9943C15.6395 33.9943 15.8192 33.9245 15.9572 33.7976C16.1116 33.6551 16.1984 33.4532 16.1962 33.2432C16.0656 22.3589 14.6331 17.9101 0.751054 17.7506Z" fill="white"/>
</svg>
