<svg width="118" height="28" viewBox="0 0 118 28" fill="none" xmlns="http://www.w3.org/2000/svg">
<path d="M0 21.1004V0.0800781C6.66271 0.595519 8.52907 4.59019 8.62941 6.52309V27.3018C2.76944 27.624 0.434815 23.3018 0 21.1004Z" fill="#1B4AC5"/>
<path d="M8.72998 21.0203V0C15.3927 0.515441 17.259 4.51011 17.3594 6.44302V27.2217C11.4994 27.5439 9.1648 23.2217 8.72998 21.0203Z" fill="#00AD6D"/>
<path d="M29 23.8322V3.19574H31.7683L41.1638 17.9321V3.19574H44.6312V23.8322H41.8628L32.4674 9.09587V23.8322H29Z" fill="#1B4AC5"/>
<path d="M53.0554 23.972C52.608 23.972 52.1046 23.9254 51.5454 23.8322C51.0048 23.7577 50.4828 23.5806 49.9795 23.3009C49.4761 23.0027 49.066 22.5646 48.7491 21.9867C48.4322 21.4088 48.2737 20.6165 48.2737 19.6099V7.69774C48.2737 6.82157 48.4042 6.09454 48.6652 5.51665C48.9262 4.92011 49.2711 4.45406 49.6998 4.11851C50.1472 3.78296 50.6319 3.54993 51.1539 3.41944C51.6945 3.27031 52.2258 3.19574 52.7478 3.19574C54.0527 3.19574 55.2271 3.21438 56.2711 3.25166C57.315 3.28895 58.2657 3.32623 59.1233 3.36352C59.9994 3.4008 60.8104 3.4474 61.556 3.50333V6.38349H53.7544C53.1206 6.38349 52.6173 6.54194 52.2444 6.85885C51.8902 7.17577 51.7132 7.66977 51.7132 8.34088V12.004L60.2977 12.1997V14.9121L51.7132 15.1079V18.6591C51.7132 19.2184 51.8064 19.6471 51.9928 19.9454C52.1978 20.2437 52.4495 20.4487 52.7478 20.5606C53.0647 20.6724 53.3909 20.7284 53.7265 20.7284H61.556V23.6085C60.7358 23.6831 59.841 23.7483 58.8716 23.8043C57.9022 23.8415 56.9142 23.8695 55.9076 23.8881C54.9195 23.9254 53.9688 23.9534 53.0554 23.972Z" fill="#1B4AC5"/>
<path d="M72.4825 23.972C71.3453 23.972 70.292 23.8788 69.3227 23.6924C68.3533 23.4874 67.5144 23.1425 66.806 22.6578C66.0976 22.1545 65.5477 21.474 65.1562 20.6165C64.7834 19.7403 64.597 18.6218 64.597 17.261V3.19574H68.0364V17.261C68.0364 18.1558 68.2135 18.8735 68.5677 19.4141C68.9219 19.9361 69.4252 20.3089 70.0777 20.5326C70.7488 20.7563 71.5504 20.8682 72.4825 20.8682C73.4145 20.8682 74.2068 20.7563 74.8593 20.5326C75.5304 20.3089 76.043 19.9361 76.3972 19.4141C76.7514 18.8735 76.9285 18.1558 76.9285 17.261V3.19574H80.3679V17.261C80.3679 18.6218 80.1722 19.7403 79.7807 20.6165C79.4079 21.474 78.8673 22.1545 78.1589 22.6578C77.4505 23.1425 76.6116 23.4874 75.6422 23.6924C74.6915 23.8788 73.6382 23.972 72.4825 23.972Z" fill="#1B4AC5"/>
<path d="M83.9371 23.8322V3.19574H92.3259C93.0902 3.19574 93.808 3.28895 94.4791 3.47537C95.1688 3.64314 95.7747 3.96005 96.2966 4.4261C96.8373 4.89214 97.2567 5.54461 97.555 6.38349C97.8719 7.20373 98.0303 8.27563 98.0303 9.5992C98.0303 10.6245 97.9278 11.482 97.7227 12.1718C97.5177 12.8429 97.2474 13.3928 96.9118 13.8216C96.5763 14.2503 96.1941 14.5859 95.7654 14.8282C95.3552 15.0519 94.9451 15.2383 94.535 15.3875L98.5057 23.8322H95.0104L91.4311 15.8908C91.1701 15.8908 90.8626 15.8908 90.5084 15.8908C90.1728 15.8908 89.8186 15.8908 89.4458 15.8908C89.0729 15.8722 88.7094 15.8628 88.3552 15.8628C88.001 15.8442 87.6748 15.8349 87.3765 15.8349V23.8322H83.9371ZM87.3765 13.1225H91.7387C92.1488 13.1225 92.5217 13.0759 92.8572 12.9827C93.1928 12.8708 93.4911 12.6844 93.752 12.4234C94.013 12.1625 94.2088 11.8083 94.3392 11.3609C94.4884 10.9134 94.563 10.3356 94.563 9.62716C94.563 8.93742 94.4884 8.37816 94.3392 7.9494C94.2088 7.502 94.013 7.16645 93.752 6.94274C93.4911 6.7004 93.1835 6.53262 92.8293 6.43941C92.4937 6.34621 92.1302 6.2996 91.7387 6.2996H87.3765V13.1225Z" fill="#1B4AC5"/>
<path d="M109.051 24C107.671 24 106.46 23.8695 105.416 23.6085C104.39 23.3289 103.524 22.8349 102.815 22.1265C102.125 21.3995 101.604 20.3462 101.249 18.9667C100.914 17.5872 100.746 15.7883 100.746 13.5699C100.746 11.3329 100.923 9.52463 101.277 8.14514C101.631 6.747 102.153 5.68442 102.843 4.95739C103.552 4.21172 104.418 3.69907 105.444 3.41944C106.488 3.13981 107.69 3 109.051 3C110.449 3 111.67 3.13981 112.714 3.41944C113.758 3.69907 114.625 4.21172 115.315 4.95739C116.004 5.68442 116.517 6.747 116.853 8.14514C117.207 9.52463 117.384 11.3329 117.384 13.5699C117.384 15.7883 117.207 17.5872 116.853 18.9667C116.517 20.3462 115.995 21.3995 115.287 22.1265C114.597 22.8349 113.73 23.3289 112.686 23.6085C111.661 23.8695 110.449 24 109.051 24ZM109.051 20.8961C109.964 20.8961 110.729 20.8029 111.344 20.6165C111.978 20.4115 112.481 20.0573 112.854 19.5539C113.227 19.032 113.497 18.2956 113.665 17.3449C113.833 16.3755 113.916 15.1172 113.916 13.5699C113.916 11.9294 113.823 10.6245 113.637 9.65513C113.469 8.66711 113.199 7.92144 112.826 7.41811C112.453 6.89614 111.959 6.55127 111.344 6.38349C110.729 6.19707 109.964 6.10386 109.051 6.10386C108.193 6.10386 107.457 6.19707 106.842 6.38349C106.227 6.55127 105.723 6.89614 105.332 7.41811C104.959 7.92144 104.679 8.66711 104.493 9.65513C104.307 10.6245 104.213 11.9294 104.213 13.5699C104.213 15.1172 104.288 16.3755 104.437 17.3449C104.605 18.2956 104.875 19.032 105.248 19.5539C105.621 20.0573 106.115 20.4115 106.73 20.6165C107.364 20.8029 108.137 20.8961 109.051 20.8961Z" fill="#1B4AC5"/>
</svg>
