<svg width="69" height="69" viewBox="0 0 69 69" fill="none" xmlns="http://www.w3.org/2000/svg">
<rect width="55.7875" height="55.6018" rx="6" transform="matrix(0.962497 -0.271291 0.273264 0.961939 0.0942383 15.1346)" fill="#9D75DE"/>
<g filter="url(#filter0_b_58_905)">
<rect x="19.1687" y="11" width="47.4331" height="47.2478" rx="5.1" fill="white" fill-opacity="0.43"/>
</g>
<path d="M26.3761 49.0272V45.0217L37.0441 34.6046C38.0644 33.5784 38.9147 32.6667 39.5949 31.8696C40.275 31.0725 40.7852 30.3003 41.1253 29.553C41.4654 28.8057 41.6354 28.0086 41.6354 27.1617C41.6354 26.1952 41.4154 25.3682 40.9752 24.6807C40.5351 23.9832 39.9299 23.4452 39.1597 23.0666C38.3895 22.688 37.5143 22.4986 36.534 22.4986C35.5237 22.4986 34.6384 22.7079 33.8782 23.1264C33.118 23.5349 32.5278 24.1178 32.1077 24.875C31.6976 25.6322 31.4925 26.534 31.4925 27.5802H26.196C26.196 25.6372 26.6412 23.9484 27.5314 22.5136C28.4217 21.0788 29.647 19.9678 31.2075 19.1807C32.7779 18.3936 34.5784 18 36.609 18C38.6696 18 40.4801 18.3836 42.0405 19.1508C43.601 19.918 44.8113 20.9692 45.6716 22.3043C46.5418 23.6395 46.977 25.1639 46.977 26.8777C46.977 28.0236 46.7569 29.1495 46.3168 30.2554C45.8766 31.3614 45.1014 32.587 43.9911 33.9321C42.8908 35.2772 41.3454 36.9063 39.3548 38.8193L34.0583 44.1848V44.394H47.4421V49.0272H26.3761Z" fill="white"/>
<path d="M56.0245 49.356C55.1143 49.356 54.334 49.0371 53.6839 48.3995C53.0337 47.7618 52.7136 46.9846 52.7236 46.0679C52.7136 45.1712 53.0337 44.404 53.6839 43.7663C54.334 43.1286 55.1143 42.8098 56.0245 42.8098C56.9048 42.8098 57.67 43.1286 58.3202 43.7663C58.9804 44.404 59.3155 45.1712 59.3255 46.0679C59.3155 46.6757 59.1554 47.2287 58.8453 47.7269C58.5452 48.2251 58.1451 48.6236 57.645 48.9226C57.1548 49.2115 56.6147 49.356 56.0245 49.356Z" fill="white"/>
<defs>
<filter id="filter0_b_58_905" x="7.1687" y="-1" width="71.4331" height="71.2478" filterUnits="userSpaceOnUse" color-interpolation-filters="sRGB">
<feFlood flood-opacity="0" result="BackgroundImageFix"/>
<feGaussianBlur in="BackgroundImageFix" stdDeviation="6"/>
<feComposite in2="SourceAlpha" operator="in" result="effect1_backgroundBlur_58_905"/>
<feBlend mode="normal" in="SourceGraphic" in2="effect1_backgroundBlur_58_905" result="shape"/>
</filter>
</defs>
</svg>
