<svg width="75" height="76" viewBox="0 0 75 76" fill="none" xmlns="http://www.w3.org/2000/svg">
<g filter="url(#filter0_d_58_897)">
<rect width="55.7875" height="55.6018" rx="6" transform="matrix(0.962497 -0.271291 0.273264 0.961939 3.09448 15.1348)" fill="#E27721"/>
<g filter="url(#filter1_b_58_897)">
<rect x="22.1689" y="11" width="47.4331" height="47.2478" rx="5.1" fill="white" fill-opacity="0.43"/>
</g>
<path d="M29.1963 43.914V39.6846L41.7039 20H45.2446V26.0215H43.0857L34.6657 39.3118V39.5412H52.1246V43.914H29.1963ZM43.2584 49.362V42.6237L43.316 40.7312V20H48.3536V49.362H43.2584Z" fill="white"/>
<path d="M59.1592 49.6774C58.286 49.6774 57.5376 49.3716 56.9139 48.7599C56.2902 48.1481 55.9831 47.4026 55.9927 46.5233C55.9831 45.6631 56.2902 44.9271 56.9139 44.3154C57.5376 43.7037 58.286 43.3978 59.1592 43.3978C60.0036 43.3978 60.7377 43.7037 61.3614 44.3154C61.9947 44.9271 62.3161 45.6631 62.3257 46.5233C62.3161 47.1063 62.1626 47.6368 61.8651 48.1147C61.5773 48.5926 61.1934 48.9749 60.7137 49.2616C60.2435 49.5388 59.7253 49.6774 59.1592 49.6774Z" fill="white"/>
</g>
<defs>
<filter id="filter0_d_58_897" x="0.504395" y="1.40112" width="74.0696" height="73.8181" filterUnits="userSpaceOnUse" color-interpolation-filters="sRGB">
<feFlood flood-opacity="0" result="BackgroundImageFix"/>
<feColorMatrix in="SourceAlpha" type="matrix" values="0 0 0 0 0 0 0 0 0 0 0 0 0 0 0 0 0 0 127 0" result="hardAlpha"/>
<feOffset dy="4"/>
<feGaussianBlur stdDeviation="2"/>
<feComposite in2="hardAlpha" operator="out"/>
<feColorMatrix type="matrix" values="0 0 0 0 0 0 0 0 0 0 0 0 0 0 0 0 0 0 0.25 0"/>
<feBlend mode="normal" in2="BackgroundImageFix" result="effect1_dropShadow_58_897"/>
<feBlend mode="normal" in="SourceGraphic" in2="effect1_dropShadow_58_897" result="shape"/>
</filter>
<filter id="filter1_b_58_897" x="10.1689" y="-1" width="71.4331" height="71.2478" filterUnits="userSpaceOnUse" color-interpolation-filters="sRGB">
<feFlood flood-opacity="0" result="BackgroundImageFix"/>
<feGaussianBlur in="BackgroundImageFix" stdDeviation="6"/>
<feComposite in2="SourceAlpha" operator="in" result="effect1_backgroundBlur_58_897"/>
<feBlend mode="normal" in="SourceGraphic" in2="effect1_backgroundBlur_58_897" result="shape"/>
</filter>
</defs>
</svg>
