<svg width="75" height="76" viewBox="0 0 75 76" fill="none" xmlns="http://www.w3.org/2000/svg">
<g filter="url(#filter0_d_58_913)">
<rect width="55.7875" height="55.6018" rx="6" transform="matrix(0.962497 -0.271291 0.273264 0.961939 3.09424 15.1346)" fill="#00AD6D"/>
<g filter="url(#filter1_b_58_913)">
<rect x="22.1687" y="11" width="47.4331" height="47.2478" rx="5.1" fill="white" fill-opacity="0.43"/>
</g>
<path d="M40.3194 49.0415C38.1866 49.0415 36.2907 48.6775 34.6318 47.9497C32.9828 47.2219 31.6794 46.2088 30.7216 44.9105C29.7638 43.6122 29.2553 42.1122 29.196 40.4106H34.7651C34.8145 41.227 35.086 41.9401 35.5798 42.5499C36.0735 43.1499 36.7301 43.6171 37.5497 43.9515C38.3692 44.2859 39.2876 44.4531 40.3046 44.4531C41.3908 44.4531 42.3535 44.2662 43.1928 43.8925C44.0321 43.5089 44.6888 42.9778 45.1627 42.2991C45.6367 41.6204 45.8688 40.8385 45.8589 39.9533C45.8688 39.0386 45.6318 38.232 45.1479 37.5337C44.6641 36.8354 43.963 36.2895 43.0447 35.8961C42.1363 35.5026 41.0402 35.3059 39.7566 35.3059H37.0757V31.0864H39.7566C40.8131 31.0864 41.7364 30.9044 42.5263 30.5405C43.3261 30.1766 43.9531 29.6651 44.4074 29.0061C44.8616 28.3373 45.0837 27.5652 45.0739 26.6898C45.0837 25.8341 44.8912 25.0915 44.4962 24.4621C44.1111 23.8227 43.5631 23.326 42.8522 22.9719C42.1511 22.6179 41.3266 22.4408 40.3787 22.4408C39.4505 22.4408 38.5914 22.608 37.8015 22.9424C37.0115 23.2769 36.3746 23.7539 35.8908 24.3735C35.407 24.9833 35.1502 25.7112 35.1206 26.5571H29.8329C29.8724 24.8653 30.3612 23.3801 31.2993 22.1015C32.2472 20.813 33.5111 19.8098 35.091 19.0918C36.6709 18.3639 38.4433 18 40.4083 18C42.4325 18 44.1901 18.3787 45.6811 19.136C47.182 19.8835 48.3423 20.8917 49.1618 22.1605C49.9814 23.4293 50.3912 24.8309 50.3912 26.3653C50.401 28.0668 49.8975 29.493 48.8804 30.6438C47.8732 31.7946 46.5501 32.547 44.9109 32.9011V33.1371C47.0438 33.4322 48.678 34.2191 49.8135 35.4977C50.9589 36.7665 51.5267 38.3451 51.5168 40.2336C51.5168 41.9253 51.033 43.44 50.0653 44.7777C49.1075 46.1055 47.7844 47.1481 46.0959 47.9054C44.4172 48.6628 42.4918 49.0415 40.3194 49.0415Z" fill="white"/>
<path d="M59.0669 48.9529C58.1684 48.9529 57.3982 48.6382 56.7564 48.0087C56.1145 47.3792 55.7986 46.6121 55.8084 45.7072C55.7986 44.822 56.1145 44.0646 56.7564 43.4351C57.3982 42.8056 58.1684 42.4909 59.0669 42.4909C59.9359 42.4909 60.6913 42.8056 61.3331 43.4351C61.9848 44.0646 62.3156 44.822 62.3255 45.7072C62.3156 46.3071 62.1576 46.853 61.8515 47.3448C61.5553 47.8366 61.1603 48.23 60.6666 48.5251C60.1827 48.8103 59.6495 48.9529 59.0669 48.9529Z" fill="white"/>
</g>
<defs>
<filter id="filter0_d_58_913" x="0.50415" y="1.40112" width="74.0696" height="73.818" filterUnits="userSpaceOnUse" color-interpolation-filters="sRGB">
<feFlood flood-opacity="0" result="BackgroundImageFix"/>
<feColorMatrix in="SourceAlpha" type="matrix" values="0 0 0 0 0 0 0 0 0 0 0 0 0 0 0 0 0 0 127 0" result="hardAlpha"/>
<feOffset dy="4"/>
<feGaussianBlur stdDeviation="2"/>
<feComposite in2="hardAlpha" operator="out"/>
<feColorMatrix type="matrix" values="0 0 0 0 0 0 0 0 0 0 0 0 0 0 0 0 0 0 0.25 0"/>
<feBlend mode="normal" in2="BackgroundImageFix" result="effect1_dropShadow_58_913"/>
<feBlend mode="normal" in="SourceGraphic" in2="effect1_dropShadow_58_913" result="shape"/>
</filter>
<filter id="filter1_b_58_913" x="10.1687" y="-1" width="71.4331" height="71.2478" filterUnits="userSpaceOnUse" color-interpolation-filters="sRGB">
<feFlood flood-opacity="0" result="BackgroundImageFix"/>
<feGaussianBlur in="BackgroundImageFix" stdDeviation="6"/>
<feComposite in2="SourceAlpha" operator="in" result="effect1_backgroundBlur_58_913"/>
<feBlend mode="normal" in="SourceGraphic" in2="effect1_backgroundBlur_58_913" result="shape"/>
</filter>
</defs>
</svg>
