<svg width="34" height="28" viewBox="0 0 34 28" fill="none" xmlns="http://www.w3.org/2000/svg">
<path d="M34 3.25048C32.7486 3.81931 31.3996 4.19312 30.0019 4.37189C31.4321 3.51052 32.5373 2.14532 33.0574 0.503824C31.7084 1.31644 30.2132 1.88528 28.6367 2.21033C27.3528 0.81262 25.5488 0 23.501 0C19.6816 0 16.5612 3.12046 16.5612 6.97228C16.5612 7.52486 16.6262 8.06119 16.74 8.56501C10.9541 8.27247 5.8021 5.49331 2.37285 1.28394C1.77151 2.30784 1.43021 3.51052 1.43021 4.7782C1.43021 7.19981 2.64914 9.34513 4.53442 10.5641C3.3805 10.5641 2.30784 10.239 1.3652 9.75144V9.80019C1.3652 13.1807 3.77056 16.0086 6.95602 16.6424C5.9333 16.9223 4.85962 16.9613 3.81931 16.7562C4.26074 18.1417 5.12525 19.354 6.29133 20.2227C7.4574 21.0915 8.86641 21.5729 10.3203 21.5994C7.8558 23.5504 4.80095 24.605 1.65774 24.5899C1.10516 24.5899 0.552581 24.5574 0 24.4924C3.08795 26.4751 6.76099 27.6291 10.6941 27.6291C23.501 27.6291 30.5382 17 30.5382 7.7849C30.5382 7.4761 30.5382 7.18356 30.522 6.87476C31.8872 5.89962 33.0574 4.66444 34 3.25048Z" fill="white"/>
</svg>
