<svg width="34" height="21" viewBox="0 0 34 21" fill="none" xmlns="http://www.w3.org/2000/svg">
<path d="M32.6321 20.1969H28.911C27.5031 20.1969 27.079 19.0565 24.5553 16.5312C22.3497 14.4055 21.4182 14.1412 20.8602 14.1412C20.0886 14.1412 19.8782 14.3533 19.8782 15.4153V18.7629C19.8782 19.6683 19.5845 20.1985 17.219 20.1985C14.9242 20.0443 12.6988 19.3472 10.7262 18.1644C8.75353 16.9817 7.0901 15.3472 5.87291 13.3957C2.98276 9.79858 0.971815 5.57671 0 1.06586C0 0.507936 0.212077 0.00221344 1.27573 0.00221344H4.99523C5.95121 0.00221344 6.29543 0.428 6.67064 1.41171C8.47656 6.72669 11.5582 11.35 12.8095 11.35C13.2891 11.35 13.4979 11.1379 13.4979 9.94211V4.46725C13.3397 1.96964 12.0134 1.75919 12.0134 0.855416C12.0301 0.616978 12.1392 0.394472 12.3174 0.235161C12.4956 0.0758495 12.7289 -0.00771634 12.9677 0.00221344H18.8145C19.6139 0.00221344 19.8782 0.400266 19.8782 1.35624V8.74632C19.8782 9.54405 20.2207 9.80833 20.4622 9.80833C20.9418 9.80833 21.3105 9.54405 22.1898 8.66638C24.0746 6.36777 25.6145 3.80682 26.7609 1.06423C26.8782 0.734945 27.1 0.45308 27.3925 0.261628C27.685 0.0701756 28.0321 -0.0203552 28.3808 0.00384469H32.102C33.2178 0.00384469 33.4544 0.561771 33.2178 1.35788C31.8644 4.38963 30.1897 7.26749 28.2226 9.94211C27.8213 10.5539 27.6614 10.872 28.2226 11.5898C28.5913 12.1477 29.8964 13.2375 30.7724 14.2734C32.0481 15.5458 33.1069 17.0173 33.9079 18.6291C34.2276 19.6667 33.6942 20.1969 32.6321 20.1969Z" fill="white"/>
</svg>
