<svg width="34" height="24" viewBox="0 0 34 24" fill="none" xmlns="http://www.w3.org/2000/svg">
<path d="M33.9922 8.42001C34.0685 6.20933 33.5851 4.01518 32.5867 2.04131C31.9093 1.23139 30.9692 0.684812 29.9302 0.496833C25.6327 0.106891 21.3174 -0.0529333 17.0029 0.0180446C12.7041 -0.0561548 8.40432 0.0985122 4.12193 0.481389C3.27528 0.635399 2.49176 1.03252 1.86699 1.6243C0.47696 2.90622 0.322512 5.09938 0.168064 6.95276C-0.0560213 10.2851 -0.0560213 13.6287 0.168064 16.961C0.212746 18.0041 0.368065 19.0396 0.631408 20.0499C0.817634 20.83 1.19441 21.5517 1.72799 22.1504C2.35701 22.7736 3.15877 23.1933 4.02926 23.3551C7.35903 23.7661 10.7141 23.9365 14.0684 23.8648C19.4741 23.942 24.2156 23.8648 29.8221 23.4324C30.7139 23.2805 31.5383 22.8602 32.1851 22.2277C32.6175 21.7951 32.9405 21.2656 33.1273 20.6832C33.6796 18.9883 33.9509 17.2145 33.9304 15.432C33.9922 14.567 33.9922 9.3467 33.9922 8.42001ZM13.5124 16.3586V6.79831L22.6557 11.6016C20.0919 13.0226 16.7094 14.6288 13.5124 16.3586Z" fill="white"/>
</svg>
